<?xml version="1.0" encoding="utf-8"?>
<!-- Generator: Adobe Illustrator 19.1.0, SVG Export Plug-In . SVG Version: 6.00 Build 0)  -->
<svg version="1.1"
	 id="svg2" xmlns:dc="http://purl.org/dc/elements/1.1/" xmlns:cc="http://creativecommons.org/ns#" xmlns:rdf="http://www.w3.org/1999/02/22-rdf-syntax-ns#" xmlns:svg="http://www.w3.org/2000/svg" xmlns:sodipodi="http://sodipodi.sourceforge.net/DTD/sodipodi-0.dtd" xmlns:inkscape="http://www.inkscape.org/namespaces/inkscape" sodipodi:docname="AA.svg" inkscape:version="0.48.2 r9819"
	 xmlns="http://www.w3.org/2000/svg" xmlns:xlink="http://www.w3.org/1999/xlink" x="0px" y="0px" viewBox="568 66.2 257 258"
	 style="enable-background:new 568 66.2 257 258;" xml:space="preserve">
<style type="text/css">
	.st0{fill:#F4BFD9;}
	.st1{fill:#F5A2C6;}
	.st2{fill:#C0739C;}
	.st3{fill:#EB99C2;}
	.st4{fill:#FFFFFF;}
	.st5{fill:#231F20;}
	.st6{fill:#EF5091;}
	.st7{fill:#908E73;}
</style>
<g id="layer1" transform="translate(-1474.6134,1284.6525)" inkscape:label="Layer 1" inkscape:groupmode="layer">
	<g id="g65983" transform="matrix(3.0867258,0,0,-3.0867258,1061.6287,1272.4026)">
		<path id="path64665" inkscape:connector-curvature="0" class="st0" d="M394.1,779.2c3.2,3.3,2,8.3-0.5,11.7
			c-3.4,4.6-8.1,5.7-13.5,5.2c-0.1-0.1-0.1-0.2-0.3-0.3c-4.3-3-0.9-11,1.3-14.2C384.1,777.3,389.8,774.8,394.1,779.2z M389.9,790
			c2.9,0.4,3-5.2-0.4-4.3C387.4,786.3,387.7,789.8,389.9,790z M383.7,788.4c2.9,0.4,3-5.2-0.4-4.3
			C381.2,784.7,381.5,788.2,383.7,788.4"/>
		<path id="path64675" inkscape:connector-curvature="0" class="st1" d="M340.5,744.8c2.8,1,4.7,3.5,5.6,6.3
			c1.8,5.1,0.4,10.4-4.3,13.4c-3.5,2.2-8.9,3.1-12.6,0.7c-1.8-1.2-2.8-3.1-3.2-5.2c-0.8-3.6,0.3-7.9,2.2-10.5
			C330.9,745.8,336,743.2,340.5,744.8"/>
		
			<path id="path64667" sodipodi:nodetypes="cccccccccccccccccccccccccsccccccccccccccccccccccc" inkscape:connector-curvature="0" class="st0" d="
			M331.8,732.8c1.7-1.7,4.1-2.8,6.4-3.9c1.9-0.9,5.1-2,7.2-2.5c3.7-0.9,6.8-0.5,10.7-0.1c2.7,0.3,4.5,1.2,7,2.1
			c0.4,0.1,2.9,0.8,3.3,1c1.6,0.6,2.3,0.9,3.9,1.8c1.3,0.7,2.3,2.1,3.4,3c1.3,1,2.5,2.3,3.6,3.5c1.1,1.2,1.7,1.8,2.4,3.3
			c0.3,0.5,0.7,2.2,0.9,2.8c0.7,2,1.3,4.7,1.4,6.6c0.1,2.3-0.9,4.3-1.5,6.5l-2.9,7.3c4.6,2.4,11,7.2,14.8,10.8
			c-4.8-0.8-10.2,1.9-12.8,6.7c-2,3.7-3.3,11.2-0.5,15.1c-6.6-0.7-17-2.5-23.5-4.5l3.2,0.9c-1.7-0.5-8.5-2.6-8.5-2.6
			c-6.2-2.8-10.4-5.4-14.8-8.5c-1.4-1.2-6.1-5.4-6.1-5.4s-3.3-5.7-4.9-9.6c-1.4-3.8-2.3-8.4-2.1-12.4c0.1-2.1,0.5-6.6,0.9-8.6
			c0.5-2.4,2.1-4.4,3.2-6.6C327.7,737,329.9,734.7,331.8,732.8L331.8,732.8z M358.8,789.3c0.9,0.9,1.9,1.6,3,1.9
			c1.3,0.4,2.7,0.3,4.1-0.2c2.3-1,3.9-3.2,3.9-5.7c0-3.8-3.7-7-7.5-6.7C357.2,779,355.5,785.7,358.8,789.3z M343.3,779.7
			c0.4,0.9,0.9,1.8,1.5,2.6c0.6,0.7,1.2,1.3,2,1.8c1.4,0.9,3,1.3,4.7,0.6c2-0.8,3.2-2.9,3.8-4.9c0.9-3.2-0.2-6.7-3.3-8.2
			c-3.3-1.5-7-0.4-8.5,3C342.8,776.3,342.7,778.1,343.3,779.7L343.3,779.7z M329.8,750.6c-1.6,2.1-2.4,5.5-1.8,8.4
			c0.3,1.7,1.2,3.2,2.6,4.1c2.9,2,7.2,1.3,10.1-0.5c3.8-2.4,4.9-6.6,3.4-10.7c-0.8-2.2-2.2-4.2-4.5-5
			C336,745.7,332,747.8,329.8,750.6"/>
		<path id="path64669" inkscape:connector-curvature="0" class="st2" d="M383.3,784.1c3.3-0.9,3.3,4.7,0.4,4.3
			C381.5,788.2,381.2,784.7,383.3,784.1"/>
		<path id="path64671" inkscape:connector-curvature="0" class="st2" d="M389.5,785.7c3.3-0.9,3.3,4.7,0.4,4.3
			C387.7,789.8,387.4,786.3,389.5,785.7"/>
		<path id="path64673" inkscape:connector-curvature="0" class="st3" d="M329.7,732.5C329.7,732.4,329.7,732.4,329.7,732.5
			c0.7-0.7,1.4-1.3,2.1-1.8c1.1-0.9,2.4-1.7,3.7-2.4c2.6-1.3,5.4-2.3,8.2-2.9c3.8-0.8,7.7-0.9,11.5-0.5c2.9,0.3,5.7,1,8.4,1.9
			c0.4,0.1,0.7,0.2,1.1,0.4c1.8,0.7,3.6,1.5,5.3,2.5c1.4,0.8,2.8,1.7,4,2.7c0.1,0.1,0.2,0.2,0.3,0.2c0.6,0.5,1.2,1,1.7,1.5
			c0.7,0.7,1.4,1.4,2,2.2c0.8,1,1.6,2.1,2.3,3.3c0.2,0.4,0.4,0.8,0.6,1.2c0.3,0.6,0.6,1.3,0.8,2c0.8,2.1,1.1,4.2,1.2,6.3
			c0,2.4-0.3,4.9-1,7.2c-0.7,2.4-1.7,4.7-3,6.8c7,2.6,13.4,8.9,17.7,14.4c0.2,0.2,0.2,0.4,0.2,0.6c2.6,3.5,2,8.7-0.1,12.5
			c-3.1,5.7-10.5,9.7-17,7.7c-0.1,0-0.3-0.1-0.4-0.2c-7.5-0.8-15.1-2.1-22.4-4.3c0,0,0,0,0,0c-0.4-0.1-0.7-0.2-1-0.3
			c-0.6-0.2-1.2-0.4-1.8-0.6c-0.3-0.1-0.6-0.2-0.9-0.3c-0.6-0.2-1.2-0.4-1.8-0.7c0,0.6,0.1,1.2,0.1,1.8c0,1.5-0.2,3-0.6,4.4
			c-0.7,2.4-2.1,4.4-4.1,5.8c-3.3,2.3-8.2,1.6-9.4-2.7c-0.6-2.1-0.1-4.4,0.6-6.4c0.9-2.6,2.4-5.1,4.1-7.3c-0.5-0.3-1-0.5-1.4-0.8
			c-0.1,0-0.1-0.1-0.2-0.1c-0.8-0.5-1.6-1-2.3-1.5c0,0,0,0-0.1,0c-0.2-0.1-0.4-0.3-0.6-0.4c-0.5,1.3-1.1,2.5-1.8,3.6
			c-0.9,1.6-2,3-3.4,4.2c-2,1.7-4.7,2.9-7.4,2.2c-2.2-0.5-3.9-2.5-4.2-4.7c-0.5-3.2,1.2-6.2,3.1-8.7c1.4-1.7,3.1-3.2,5-4.5
			c-2.7-3.4-4.9-7.2-6.2-11.3c-1.2-3.6-1.8-7.4-1.7-11.3c0-2.4,0.3-4.8,0.8-7.1c0.1-0.6,0.3-1.2,0.4-1.8c0.6-2.1,1.3-4.1,2.3-6
			C325.7,736.9,327.5,734.5,329.7,732.5L329.7,732.5z M379.9,795.8c0.1,0.1,0.2,0.2,0.3,0.3c5.4,0.5,10.1-0.6,13.5-5.2
			c2.5-3.3,3.6-8.4,0.5-11.7c-4.3-4.4-10-1.8-12.9,2.4C379,784.8,375.6,792.9,379.9,795.8z M341.4,802.8
			C341.3,802.8,341.3,802.8,341.4,802.8C341.1,802.7,341.5,802.9,341.4,802.8z M340.8,802.5C340.8,802.5,340.8,802.5,340.8,802.5
			C340.7,802.4,341,802.7,340.8,802.5z M339.8,797.7c-0.2,1-0.2,2.2,0,3c0.2,0.8,0.4,1.2,1,1.7c0,0,0,0,0,0c0.1,0,0.2,0.1,0.2,0.1
			c0.1,0,0.2,0.1,0.2,0.1c0,0,0,0,0,0c0.2,0.1,0.3,0.1,0.5,0.2c0.1,0,0.2,0,0.3,0.1c0,0,0,0,0,0c-0.1,0,0,0,0.1,0c0,0,0,0-0.1,0
			c0,0,0.1,0,0.1,0c0.2,0,0.4,0,0.6,0c0.1,0,0.2,0,0.2,0c0,0,0,0,0.1,0c0.2,0,0.4-0.1,0.6-0.1c0.1,0,0.5-0.2,0.5-0.2c0,0,0,0,0,0
			c0,0,0,0,0,0c1.8-0.8,3-2.3,3.8-4.1c0.5-1.3,0.8-2.7,0.8-4.1c0-1.2-0.2-2.4-0.4-3.5c-1.6-0.7-3.1-1.4-4.6-2.2
			C342.2,791.6,340.5,794.5,339.8,797.7L339.8,797.7z M323.6,786.7c-0.4,1.1-0.6,2.3-0.4,3.3c0.2,0.9,0.7,1.6,1.1,2
			c0.8,0.6,1.4,0.7,2.4,0.7c0.9,0,2.1-0.5,3-1.1c2.8-1.9,4.3-5.1,5.4-8.2c-1.8-1.4-3.5-2.9-5-4.6
			C327.4,780.9,324.8,783.5,323.6,786.7L323.6,786.7z M324.2,748.2c-0.5,2.1-0.7,4.2-0.8,6.3c-0.2,4.1,0.4,8.1,1.8,12
			c0.7,2,1.7,3.9,2.8,5.6c0,0,0,0,0,0c0.3,0.5,0.7,1,1,1.5c0,0,0,0.1,0.1,0.1c0.3,0.4,0.6,0.9,1,1.3c0,0.1,0.1,0.1,0.1,0.2
			c0.2,0.2,0.4,0.5,0.6,0.7c0.1-0.1,0.3-0.2,0.4-0.3c1.1-0.7,1.9,0.9,1,1.6c0,0,0,0-0.1,0.1c1.3,1.3,2.7,2.6,4.1,3.7
			c0.7-0.8,2.3-0.3,2.2,0.9c0,0.2-0.1,0.5-0.1,0.7c0.6,0.5,1.3,0.9,2,1.3c0.2,0.1,0.4,0.2,0.6,0.4c0.6,0.3,1.1,0.7,1.7,1
			c0.2,0.1,0.4,0.2,0.6,0.3c0.2,0.1,0.4,0.2,0.6,0.3c0,0,0.1-0.1,0.1-0.1c0.7-0.8,2,0.2,1.6,1c1,0.5,2.1,1.1,3.2,1.5
			c0.4-0.7,1.8-0.9,2.2,0c0.2,0.4,0.3,0.7,0.4,1.1c0.4,0.1,0.7,0.3,1.1,0.4c0,0,0,0,0.1,0c1.7,0.6,3.3,1.2,5.1,1.8v0
			c6.5,2,13.2,3.3,19.8,4c-2.8-3.9-0.6-10.7,1.4-14.4c2.6-4.8,7-7.6,11.8-6.8c-3.8-3.6-7.9-6.8-12.5-9.2c-0.1,0.1-0.2,0.2-0.3,0.3
			c-1,0.8-2.2-0.2-1.7-1.3c-0.4-0.2-0.9-0.4-1.4-0.6c-1.1-0.4-0.7-1.9,0.5-1.7c0.7,0.1,1.4,0.3,2,0.4c1.1-2.1,2.1-4.2,2.7-6.4
			c0.6-2.2,1-4.4,0.9-6.7c-0.1-2-0.4-3.9-1.2-5.9c-0.2-0.6-0.4-1.1-0.7-1.6c-0.7-1.5-1.7-2.8-2.7-4.1c-1.1-1.2-2.3-2.4-3.6-3.4
			c-1.2-0.9-2.4-1.7-3.6-2.4c-1.6-0.9-3.2-1.6-4.9-2.3c-0.4-0.1-0.7-0.3-1.1-0.4c-2.5-0.8-5.1-1.4-7.8-1.7
			c-3.8-0.4-7.7-0.2-11.5,0.7c-2.1,0.5-4.2,1.2-6.1,2.2c-2.3,1.1-4.3,2.6-6,4.3c-1.9,1.9-3.5,4.1-4.7,6.5
			C325.5,743.4,324.7,745.8,324.2,748.2"/>
		<path id="path64677" inkscape:connector-curvature="0" class="st4" d="M362.1,781c2.4-0.3,5.5,1.6,5.3,4.2
			c-0.2,2.3-2.1,3.4-4.2,3.6c-1.2,0.1-2.1-0.2-2.9-1.1c-0.7-0.8-1-1.9-0.9-3C359.4,783.1,360.3,781.3,362.1,781L362.1,781z
			 M360.3,785.4c0.3,1.6,2.6,1.9,3.5,0.8c1.1-1.2,0.6-3-1.1-3.3C361.5,782.7,360.1,784.2,360.3,785.4"/>
		<path id="path64679" inkscape:connector-curvature="0" class="st4" d="M350.7,773.6c2.5,1,3.5,3.7,2.3,6.2
			c-0.6,1.2-1.5,2.3-2.8,2.6c-1.1,0.3-2.8-0.3-3.6-1.2c-0.4-0.5-0.8-1-1.1-1.6c-0.6-1.2-0.7-2.5-0.2-3.8
			C346.2,773.7,348.5,772.7,350.7,773.6L350.7,773.6z M346.3,778.4c0.3,1.6,2.6,1.9,3.5,0.8c1.1-1.2,0.6-3-1.1-3.3
			C347.4,775.6,346.1,777.1,346.3,778.4"/>
		<path id="path64681" inkscape:connector-curvature="0" class="st5" d="M348.7,775.8c1.7,0.3,2.1,2,1.1,3.3c-1,1.1-3.2,0.8-3.5-0.8
			C346.1,777.1,347.4,775.6,348.7,775.8"/>
		<path id="path64683" inkscape:connector-curvature="0" class="st5" d="M362.8,782.9c1.7,0.3,2.1,2,1.1,3.3c-1,1.1-3.2,0.8-3.5-0.8
			C360.1,784.2,361.5,782.7,362.8,782.9"/>
		<path id="path64685" inkscape:connector-curvature="0" class="st3" d="M352,771.7c3.1,1.5,4.2,5,3.3,8.2c-0.5,2-1.8,4-3.8,4.9
			c-1.7,0.7-3.3,0.3-4.7-0.6c-0.7-0.5-1.4-1.1-2-1.8c-0.6-0.8-1.1-1.7-1.5-2.6c-0.6-1.6-0.6-3.4,0.1-5
			C344.9,771.4,348.7,770.2,352,771.7L352,771.7z M345.5,779.7c0.3,0.6,0.6,1.1,1.1,1.6c0.8,0.9,2.5,1.4,3.6,1.2
			c1.3-0.3,2.2-1.5,2.8-2.6c1.2-2.5,0.2-5.2-2.3-6.2c-2.2-0.9-4.5,0.1-5.4,2.3C344.8,777.1,344.9,778.5,345.5,779.7"/>
		<path id="path64687" inkscape:connector-curvature="0" class="st3" d="M362.3,778.5c3.8-0.3,7.5,2.9,7.5,6.7
			c0,2.5-1.6,4.7-3.9,5.7c-1.4,0.6-2.8,0.6-4.1,0.2c-1.1-0.3-2.2-1-3-1.9C355.5,785.7,357.2,779,362.3,778.5z M360.3,787.7
			c0.8,1,1.7,1.2,2.9,1.1c2.1-0.2,4-1.3,4.2-3.6c0.2-2.6-2.9-4.6-5.3-4.2c-1.8,0.3-2.7,2.1-2.8,3.7
			C359.3,785.8,359.6,786.9,360.3,787.7"/>
		<path id="path64689" inkscape:connector-curvature="0" class="st6" d="M363.8,744.4c-5.1-1.2-9.4,0.2-12.6,4.3
			c-0.9,1.1-2.6-0.2-2-1.3c5.9-11.1,26.3-5.2,24.7,7.5c-0.1,1-1.8,0.9-1.8-0.1C372.2,749.6,368.8,745.6,363.8,744.4"/>
		<path id="path64691" inkscape:connector-curvature="0" class="st0" d="M348.5,791c0.2,1.2,0.4,2.3,0.4,3.5c0,1.4-0.3,2.8-0.8,4.1
			c-0.7,1.8-2,3.3-3.8,4.1v0v0c0,0-0.4,0.2-0.5,0.2c-0.2,0.1-0.4,0.1-0.6,0.1c-0.1,0-0.1,0-0.1,0c0,0-0.1,0-0.2,0
			c-0.2,0-0.4,0-0.6,0c-0.1,0-0.1,0-0.1,0c0,0,0,0,0,0c-0.1,0-0.2,0-0.3-0.1c-0.2,0-0.4-0.1-0.5-0.2c0,0,0,0,0,0
			c-0.1,0-0.2-0.1-0.2-0.1c-0.1,0-0.2-0.1-0.2-0.1c0,0,0,0,0,0c-0.6-0.5-0.8-0.9-1-1.7c-0.2-0.8-0.2-2,0-3c0.7-3.2,2.3-6.1,4.1-8.9
			C345.5,789.6,347,790.3,348.5,791"/>
		<path id="path64693" inkscape:connector-curvature="0" class="st7" d="M344.3,802.6C344.3,802.6,344.3,802.6,344.3,802.6
			C344.3,802.6,344.3,802.6,344.3,802.6L344.3,802.6L344.3,802.6"/>
		<path id="path64695" inkscape:connector-curvature="0" class="st7" d="M340.8,802.5C341,802.7,340.7,802.4,340.8,802.5
			C340.8,802.5,340.8,802.5,340.8,802.5"/>
		<path id="path64697" inkscape:connector-curvature="0" class="st7" d="M342.1,803C342.2,803,342.2,803,342.1,803
			C342.2,803,342.1,803,342.1,803"/>
		<path id="path64699" inkscape:connector-curvature="0" class="st7" d="M341.4,802.8C341.5,802.9,341.1,802.7,341.4,802.8
			C341.3,802.8,341.3,802.8,341.4,802.8"/>
		<path id="path64701" inkscape:connector-curvature="0" class="st0" d="M335.2,783.3c-1.1,3.1-2.6,6.4-5.4,8.2
			c-1,0.6-2.1,1.1-3,1.1c-1,0-1.6-0.1-2.4-0.7c-0.5-0.4-1-1.1-1.1-2c-0.2-1,0-2.2,0.4-3.3c1.2-3.3,3.9-5.9,6.6-8
			C331.7,780.4,333.4,781.9,335.2,783.3"/>
	</g>
</g>
</svg>
