<?xml version="1.0" encoding="iso-8859-1"?>
<!-- Generator: Adobe Illustrator 18.0.0, SVG Export Plug-In . SVG Version: 6.00 Build 0)  -->
<!DOCTYPE svg PUBLIC "-//W3C//DTD SVG 1.1//EN" "http://www.w3.org/Graphics/SVG/1.1/DTD/svg11.dtd">
<svg version="1.1" id="Capa_1" xmlns="http://www.w3.org/2000/svg" xmlns:xlink="http://www.w3.org/1999/xlink" x="0px" y="0px"
	 viewBox="0 0 30.593 30.593" style="enable-background:new 0 0 30.593 30.593;" xml:space="preserve">
<g>
	<path d="M4.052,14.457v11.259h0.004h4.271h0.003V15.19c-1.457-0.184-2.905-0.425-4.274-0.733v0.001
		C4.055,14.458,4.053,14.457,4.052,14.457z"/>
	<path d="M1.754,11.719h0.01c1.961,0.59,4.63,1.122,7.904,1.422c1.718,0.157,3.587,0.254,5.626,0.254h0.002c0.002,0,0.002,0,0.002,0
		c2.031,0,3.895-0.097,5.608-0.253c3.283-0.299,5.958-0.832,7.923-1.423h0.01c0.634,0,1.149-0.515,1.149-1.149
		c0-0.635-0.515-1.15-1.149-1.15h-1.124l-3.674-6.066V1.685c0-0.635-0.515-1.149-1.149-1.149s-1.149,0.514-1.149,1.149v0.935H8.851
		V1.685c0-0.635-0.515-1.149-1.15-1.149c-0.635,0-1.149,0.514-1.149,1.149v1.669L2.878,9.42H1.754c-0.635,0-1.149,0.515-1.149,1.15
		C0.604,11.204,1.119,11.719,1.754,11.719z"/>
	<path d="M15.296,15.694c-1.669,0-3.59-0.07-5.574-0.237v0c-0.002,0-0.003,0-0.004,0v10.259h0.004h11.149h0.003V15.457
		c-0.001,0-0.002,0-0.003,0v0C18.887,15.624,16.966,15.694,15.296,15.694z"/>
	<path d="M22.262,15.19v10.526h0.003h4.271h0.004V14.457c-0.001,0-0.003,0.001-0.004,0.001v-0.001
		C25.167,14.765,23.719,15.007,22.262,15.19z"/>
	<path d="M29.593,28.057H1c-0.552,0-1,0.448-1,1c0,0.552,0.448,1,1,1h28.593c0.552,0,1-0.448,1-1
		C30.593,28.505,30.145,28.057,29.593,28.057z"/>
</g>
</svg>
